<svg width="29" height="29" viewBox="0 0 29 29" fill="none" xmlns="http://www.w3.org/2000/svg">
<g id="vuesax/twotone/call">
<g id="call">
<g id="call_2">
<path id="Vector" d="M26.1118 21.6607C26.1118 22.0793 26.0188 22.5095 25.8211 22.9281C25.6234 23.3467 25.3676 23.7421 25.0304 24.1142C24.4606 24.7421 23.8327 25.1956 23.1234 25.4863C22.4257 25.777 21.6699 25.9282 20.8559 25.9282C19.6699 25.9282 18.4024 25.6491 17.0652 25.0793C15.728 24.5095 14.3907 23.7421 13.0651 22.777C11.7279 21.8002 10.4605 20.7188 9.25115 19.5211C8.05347 18.3118 6.97206 17.0444 6.00694 15.7188C5.05344 14.3932 4.28599 13.0676 3.72784 11.7536C3.1697 10.428 2.89062 9.16056 2.89062 7.95124C2.89062 7.16054 3.03016 6.40472 3.30923 5.70703C3.58831 4.99772 4.03017 4.34655 4.64646 3.76515C5.39065 3.03259 6.20461 2.67212 7.06509 2.67212C7.39067 2.67212 7.71626 2.74189 8.00696 2.88142C8.30928 3.02096 8.57673 3.23026 8.78603 3.53259L11.4837 7.33496C11.693 7.62566 11.8442 7.8931 11.9489 8.14892C12.0535 8.39311 12.1116 8.6373 12.1116 8.85823C12.1116 9.1373 12.0303 9.41637 11.8675 9.68382C11.7163 9.95126 11.4954 10.2303 11.2163 10.5094L10.3326 11.428C10.2047 11.5559 10.1465 11.7071 10.1465 11.8931C10.1465 11.9862 10.1581 12.0676 10.1814 12.1606C10.2163 12.2536 10.2512 12.3234 10.2744 12.3931C10.4837 12.7769 10.8442 13.2769 11.3558 13.8815C11.8791 14.4862 12.4372 15.1025 13.0419 15.7188C13.6698 16.335 14.2745 16.9048 14.8907 17.4281C15.4954 17.9397 15.9954 18.2886 16.3908 18.4979C16.4489 18.5211 16.5187 18.556 16.6001 18.5909C16.6931 18.6258 16.7861 18.6374 16.8908 18.6374C17.0884 18.6374 17.2396 18.5676 17.3675 18.4397L18.2512 17.5676C18.5419 17.2769 18.821 17.056 19.0885 16.9164C19.3559 16.7537 19.6234 16.6723 19.9141 16.6723C20.135 16.6723 20.3675 16.7188 20.6234 16.8234C20.8792 16.9281 21.1466 17.0792 21.4373 17.2769L25.2862 20.0095C25.5885 20.2188 25.7978 20.463 25.9257 20.7537C26.042 21.0444 26.1118 21.3351 26.1118 21.6607Z" stroke="#0A7212" stroke-width="1.79404" stroke-miterlimit="10"/>
</g>
</g>
</g>
</svg>
