<svg width="34" height="33" viewBox="0 0 34 33" fill="none" xmlns="http://www.w3.org/2000/svg">
<g id="fluent:chat-20-regular">
<path id="Vector" d="M16.8398 3.27686C18.8065 3.27799 20.7474 3.72454 22.5169 4.583C24.2864 5.44146 25.8384 6.68952 27.0566 8.23353C28.2748 9.77755 29.1274 11.5774 29.5506 13.4981C29.9738 15.4187 29.9565 17.4103 29.4999 19.3232C29.0434 21.2362 28.1596 23.021 26.9147 24.5436C25.6699 26.0662 24.0963 27.2871 22.3122 28.1146C20.5281 28.9421 18.5797 29.3549 16.6132 29.3218C14.6468 29.2887 12.7134 28.8107 10.9581 27.9236L10.7611 27.8178L4.82735 29.2992C4.71315 29.3279 4.59408 29.3315 4.47836 29.3098C4.36264 29.288 4.25302 29.2414 4.15706 29.1731C4.06111 29.1049 3.9811 29.0166 3.92257 28.9144C3.86404 28.8123 3.82837 28.6986 3.81803 28.5813V28.4478L3.84083 28.3127L5.32224 22.3805L5.21968 22.1852C4.47471 20.7187 4.01614 19.1236 3.8685 17.4854L3.8278 16.8635L3.81641 16.3002C3.81641 12.8462 5.18851 9.53368 7.63087 7.09132C10.0732 4.64896 13.3858 3.27686 16.8398 3.27686ZM16.8398 4.90478C14.8512 4.90446 12.8972 5.42452 11.1719 6.41328C9.44653 7.40204 8.00998 8.82508 7.00496 10.541C5.99994 12.2569 5.46144 14.2059 5.44297 16.1944C5.42451 18.1829 5.92671 20.1416 6.89969 21.8759C6.97523 22.0107 7.01081 22.1643 7.00225 22.3187L6.97946 22.4717L5.74875 27.3897L10.6716 26.1622C10.7717 26.1375 10.8755 26.132 10.9776 26.1459L11.1258 26.1801L11.2674 26.2436C12.7868 27.0942 14.481 27.5853 16.2197 27.6791C17.9585 27.773 19.6957 27.4671 21.2978 26.785C22.9 26.1029 24.3245 25.0627 25.462 23.7443C26.5995 22.4259 27.4197 20.8643 27.8597 19.1795C28.2996 17.4947 28.3476 15.7314 28 14.0252C27.6524 12.3189 26.9183 10.7151 25.8542 9.3367C24.7902 7.95834 23.4244 6.84216 21.8617 6.07389C20.299 5.30561 18.5811 4.90567 16.8398 4.90478ZM17.6538 17.9282C17.8572 17.9278 18.0533 18.0036 18.2036 18.1406C18.354 18.2777 18.4475 18.466 18.4659 18.6686C18.4843 18.8712 18.4261 19.0733 18.3029 19.2351C18.1797 19.397 18.0004 19.5068 17.8003 19.5431L17.6538 19.5561H12.77C12.5666 19.5565 12.3704 19.4807 12.2201 19.3436C12.0698 19.2066 11.9762 19.0182 11.9579 18.8157C11.9395 18.6131 11.9976 18.411 12.1208 18.2491C12.244 18.0873 12.4233 17.9774 12.6235 17.9412L12.77 17.9282H17.6538ZM20.9096 13.0444C21.113 13.044 21.3092 13.1198 21.4595 13.2569C21.6098 13.3939 21.7034 13.5822 21.7217 13.7848C21.7401 13.9874 21.682 14.1895 21.5588 14.3513C21.4356 14.5132 21.2563 14.6231 21.0561 14.6593L20.9096 14.6723H12.77C12.5666 14.6727 12.3704 14.5969 12.2201 14.4599C12.0698 14.3228 11.9762 14.1345 11.9579 13.9319C11.9395 13.7293 11.9976 13.5272 12.1208 13.3654C12.244 13.2035 12.4233 13.0937 12.6235 13.0574L12.77 13.0444H20.9096Z" fill="#0A7212"/>
</g>
</svg>
