<svg width="34" height="33" viewBox="0 0 34 33" fill="none" xmlns="http://www.w3.org/2000/svg">
<g id="ph:projector-screen-chart-thin" clip-path="url(#clip0_4162_1365)">
<path id="Vector" d="M12.583 18.3352V16.3003C12.583 16.1654 12.6366 16.036 12.732 15.9406C12.8274 15.8452 12.9568 15.7916 13.0917 15.7916C13.2266 15.7916 13.356 15.8452 13.4514 15.9406C13.5468 16.036 13.6004 16.1654 13.6004 16.3003V18.3352C13.6004 18.4701 13.5468 18.5995 13.4514 18.6949C13.356 18.7903 13.2266 18.8439 13.0917 18.8439C12.9568 18.8439 12.8274 18.7903 12.732 18.6949C12.6366 18.5995 12.583 18.4701 12.583 18.3352ZM17.1615 18.8439C17.2964 18.8439 17.4258 18.7903 17.5212 18.6949C17.6166 18.5995 17.6702 18.4701 17.6702 18.3352V15.2829C17.6702 15.1479 17.6166 15.0185 17.5212 14.9231C17.4258 14.8277 17.2964 14.7741 17.1615 14.7741C17.0266 14.7741 16.8972 14.8277 16.8018 14.9231C16.7064 15.0185 16.6528 15.1479 16.6528 15.2829V18.3352C16.6528 18.4701 16.7064 18.5995 16.8018 18.6949C16.8972 18.7903 17.0266 18.8439 17.1615 18.8439ZM21.2313 18.8439C21.3662 18.8439 21.4956 18.7903 21.591 18.6949C21.6864 18.5995 21.74 18.4701 21.74 18.3352V14.2654C21.74 14.1305 21.6864 14.0011 21.591 13.9057C21.4956 13.8103 21.3662 13.7567 21.2313 13.7567C21.0964 13.7567 20.967 13.8103 20.8716 13.9057C20.7762 14.0011 20.7226 14.1305 20.7226 14.2654V18.3352C20.7226 18.4701 20.7762 18.5995 20.8716 18.6949C20.967 18.7903 21.0964 18.8439 21.2313 18.8439ZM27.8448 9.68687V22.9137H29.3709C29.5059 22.9137 29.6353 22.9673 29.7307 23.0627C29.8261 23.1582 29.8797 23.2876 29.8797 23.4225C29.8797 23.5574 29.8261 23.6868 29.7307 23.7822C29.6353 23.8776 29.5059 23.9312 29.3709 23.9312H17.6702V27.0344C18.2879 27.1605 18.8367 27.5114 19.2103 28.0191C19.5838 28.5268 19.7556 29.1552 19.6923 29.7823C19.6289 30.4095 19.3349 30.9908 18.8673 31.4135C18.3998 31.8362 17.7919 32.0703 17.1615 32.0703C16.5312 32.0703 15.9233 31.8362 15.4557 31.4135C14.9881 30.9908 14.6941 30.4095 14.6308 29.7823C14.5674 29.1552 14.7392 28.5268 15.1128 28.0191C15.4864 27.5114 16.0352 27.1605 16.6528 27.0344V23.9312H4.95209C4.81716 23.9312 4.68777 23.8776 4.59236 23.7822C4.49696 23.6868 4.44336 23.5574 4.44336 23.4225C4.44336 23.2876 4.49696 23.1582 4.59236 23.0627C4.68777 22.9673 4.81716 22.9137 4.95209 22.9137H6.47826V9.68687H5.96954C5.56477 9.68687 5.17658 9.52608 4.89037 9.23986C4.60415 8.95365 4.44336 8.56546 4.44336 8.16069V6.12579C4.44336 5.72102 4.60415 5.33283 4.89037 5.04662C5.17658 4.7604 5.56477 4.59961 5.96954 4.59961H28.3535C28.7583 4.59961 29.1464 4.7604 29.4327 5.04662C29.7189 5.33283 29.8797 5.72102 29.8797 6.12579V8.16069C29.8797 8.56546 29.7189 8.95365 29.4327 9.23986C29.1464 9.52608 28.7583 9.68687 28.3535 9.68687H27.8448ZM17.1615 28.001C16.8597 28.001 16.5646 28.0905 16.3136 28.2582C16.0626 28.4259 15.867 28.6643 15.7515 28.9431C15.636 29.222 15.6058 29.5289 15.6647 29.8249C15.7235 30.121 15.8689 30.3929 16.0823 30.6064C16.2958 30.8198 16.5677 30.9652 16.8638 31.024C17.1598 31.0829 17.4667 31.0527 17.7456 30.9372C18.0244 30.8217 18.2628 30.6261 18.4305 30.3751C18.5982 30.1241 18.6877 29.829 18.6877 29.5272C18.6877 29.1224 18.5269 28.7342 18.2407 28.448C17.9545 28.1618 17.5663 28.001 17.1615 28.001ZM5.96954 8.66942H28.3535C28.4884 8.66942 28.6178 8.61582 28.7132 8.52042C28.8086 8.42501 28.8622 8.29561 28.8622 8.16069V6.12579C28.8622 5.99086 28.8086 5.86147 28.7132 5.76606C28.6178 5.67066 28.4884 5.61706 28.3535 5.61706H5.96954C5.83461 5.61706 5.70522 5.67066 5.60981 5.76606C5.51441 5.86147 5.46081 5.99086 5.46081 6.12579V8.16069C5.46081 8.29561 5.51441 8.42501 5.60981 8.52042C5.70522 8.61582 5.83461 8.66942 5.96954 8.66942ZM26.8273 9.68687H7.49572V22.9137H26.8273V9.68687Z" fill="#0A7212"/>
</g>
<defs>
<clipPath id="clip0_4162_1365">
<rect width="32.5585" height="32.5585" fill="white" transform="translate(0.882812 0.0209961)"/>
</clipPath>
</defs>
</svg>
