<svg width="34" height="34" viewBox="0 0 34 34" fill="none" xmlns="http://www.w3.org/2000/svg">
<g id="arcticons:linkedin-learning">
<path id="Vector" d="M29.0307 6.99634H5.2902C4.54407 6.99634 3.93359 7.60681 3.93359 8.35294V25.3105C3.93359 26.0566 4.54407 26.6671 5.2902 26.6671H29.0307C29.7769 26.6671 30.3874 26.0566 30.3874 25.3105V8.35294C30.3874 7.60681 29.7769 6.99634 29.0307 6.99634Z" stroke="#0A7212" stroke-width="1.27908" stroke-linecap="round" stroke-linejoin="round"/>
<path id="Vector_2" d="M21.4376 16.832C21.4376 16.979 21.3988 17.1234 21.3253 17.2506C21.2517 17.3779 21.1459 17.4835 21.0186 17.5568L14.8155 21.1281C14.6883 21.2013 14.5442 21.2397 14.3974 21.2395C14.2507 21.2394 14.1066 21.2006 13.9796 21.1271C13.8526 21.0537 13.7471 20.9481 13.6738 20.821C13.6005 20.6938 13.562 20.5497 13.562 20.403V13.2605C13.562 13.1137 13.6005 12.9696 13.6738 12.8425C13.7471 12.7153 13.8526 12.6098 13.9796 12.5363C14.1066 12.4628 14.2507 12.424 14.3974 12.4239C14.5442 12.4237 14.6883 12.4622 14.8155 12.5353L21.0186 16.1073C21.1459 16.1806 21.2517 16.2862 21.3253 16.4135C21.3988 16.5407 21.4376 16.6851 21.4376 16.832ZM21.4376 16.832L27.845 16.8317M17.1618 6.99634V13.7834M17.1618 19.7769V26.6671M6.47852 22.252H14.6181M6.47852 16.8317H13.5613M6.47852 11.4114H14.6181M19.7054 22.252H27.845M19.7054 11.4114H27.845" stroke="#0A7212" stroke-width="1.27908" stroke-linecap="round" stroke-linejoin="round"/>
</g>
</svg>
